<?xml version="1.0" standalone="no"?>
<!DOCTYPE svg PUBLIC "-//W3C//DTD SVG 20010904//EN"
 "http://www.w3.org/TR/2001/REC-SVG-20010904/DTD/svg10.dtd">
<svg version="1.0" xmlns="http://www.w3.org/2000/svg"
 width="300.000000pt" height="300.000000pt" viewBox="0 0 300.000000 300.000000"
 preserveAspectRatio="xMidYMid meet">
<metadata>
Created by potrace 1.14, written by Peter Selinger 2001-2017
</metadata>
<g transform="translate(0.000000,300.000000) scale(0.100000,-0.100000)"
fill="#000000" stroke="none">
<path d="M1351 2498 c-48 -13 -143 -80 -179 -125 -43 -55 -83 -146 -95 -221
-9 -51 -8 -74 4 -122 8 -32 13 -58 9 -57 -18 6 -123 -127 -142 -180 -7 -18
-16 -33 -20 -33 -4 0 -8 -10 -8 -23 0 -13 -4 -27 -9 -32 -13 -13 -39 -119 -48
-191 -11 -93 -5 -240 13 -312 32 -133 120 -255 212 -296 49 -22 45 0 48 -251
2 -210 11 -374 19 -397 4 -10 3 -18 -3 -18 -5 0 -31 -21 -56 -46 -49 -50 -96
-134 -96 -171 0 -22 3 -23 86 -23 l86 0 40 45 c22 25 43 45 46 45 4 0 20 -20
35 -45 l29 -45 296 0 297 0 33 50 c17 27 32 54 32 60 0 15 17 12 48 -7 38 -25
47 -35 66 -71 l17 -32 93 0 93 0 -3 33 c-5 43 -57 148 -91 182 -16 15 -50 41
-76 57 -32 20 -45 34 -39 42 14 17 7 97 -11 133 -45 86 -154 139 -302 147 -37
2 -70 7 -75 12 -9 10 -20 91 -26 189 -5 80 8 108 59 131 118 53 278 193 316
276 39 87 59 368 36 513 -15 95 -50 207 -77 247 -10 14 -18 30 -18 35 0 14
-71 83 -109 107 -53 32 -155 62 -237 68 l-31 2 0 78 c0 66 -4 86 -29 135 -47
91 -142 137 -233 111z"/>
</g>
</svg>
